<?xml version="1.0" standalone="no"?><!DOCTYPE svg PUBLIC "-//W3C//DTD SVG 1.1//EN" "http://www.w3.org/Graphics/SVG/1.1/DTD/svg11.dtd"><svg t="1583171908923" class="icon" viewBox="0 0 1024 1024" version="1.1" xmlns="http://www.w3.org/2000/svg" p-id="2348" xmlns:xlink="http://www.w3.org/1999/xlink" width="60" height="60"><defs><style type="text/css"></style></defs><path d="M698.368 503.808c-29.696-6.144-15.36-22.528-15.36-22.528s29.696-48.128-6.144-83.968c-44.032-44.032-150.528 5.12-150.528 5.12-40.96 12.288-29.696-6.144-24.576-36.864 0-36.864-12.288-99.328-120.832-62.464-106.496 37.888-199.68 167.936-199.68 167.936-64.512 86.016-56.32 152.576-56.32 152.576 16.384 146.432 172.032 187.392 293.888 196.608 128 10.24 300.032-44.032 352.256-154.624 52.224-111.616-43.008-155.648-72.704-161.792zM428.032 778.24c-126.976 6.144-229.376-57.344-229.376-142.336s102.4-152.576 229.376-158.72c126.976-6.144 229.376 46.08 229.376 131.072S555.008 773.12 428.032 778.24z" fill="#E6172D" p-id="2349"></path><path d="M403.456 533.504c-128 15.36-112.64 134.144-112.64 134.144s-1.024 37.888 33.792 57.344c74.752 39.936 151.552 16.384 190.464-33.792 38.912-50.176 15.36-172.032-111.616-157.696zM370.688 701.44c-23.552 3.072-43.008-11.264-43.008-30.72s17.408-40.96 40.96-43.008c27.648-2.048 45.056 13.312 45.056 32.768 0 19.456-19.456 37.888-43.008 40.96z m75.776-64.512c-8.192 6.144-18.432 5.12-22.528-2.048s-3.072-18.432 5.12-24.576c9.216-7.168 19.456-5.12 23.552 2.048 4.096 8.192 1.024 18.432-6.144 24.576z" p-id="2350"></path><path d="M759.808 452.608c10.24 0 19.456-7.168 20.48-17.408v-2.048C795.648 292.864 665.6 317.44 665.6 317.44c-11.264 0-20.48 9.216-20.48 21.504 0 11.264 9.216 20.48 20.48 20.48 93.184-20.48 72.704 72.704 72.704 72.704 1.024 10.24 10.24 20.48 21.504 20.48z" fill="#FF9933" p-id="2351"></path><path d="M745.472 207.872c-45.056-10.24-91.136-1.024-104.448 1.024-1.024 0-2.048 1.024-3.072 1.024l-1.024 1.024c-12.288 4.096-22.528 15.36-22.528 29.696 0 16.384 13.312 30.72 30.72 30.72 0 0 16.384-2.048 27.648-6.144s104.448-3.072 150.528 74.752c25.6 56.32 11.264 95.232 9.216 101.376 0 0-6.144 14.336-6.144 29.696 0 16.384 13.312 27.648 30.72 27.648 14.336 0 25.6-2.048 29.696-25.6 49.152-168.96-61.44-246.784-141.312-265.216z" fill="#FF9933" p-id="2352"></path></svg>